<?xml version="1.0" standalone="no"?>
<!DOCTYPE svg PUBLIC "-//W3C//DTD SVG 20010904//EN"
 "http://www.w3.org/TR/2001/REC-SVG-20010904/DTD/svg10.dtd">
<svg version="1.0" xmlns="http://www.w3.org/2000/svg"
 width="96.000000pt" height="96.000000pt" viewBox="0 0 96.000000 96.000000"
 preserveAspectRatio="xMidYMid meet">

<g transform="translate(0.000000,96.000000) scale(0.100000,-0.100000)"
fill="#19197d" stroke="none">
<path d="M426 948 c-3 -7 -7 -45 -10 -85 -7 -102 -30 -144 -139 -261 -121
-130 -152 -189 -151 -287 0 -55 6 -81 27 -121 70 -137 244 -217 402 -184 76
16 126 41 182 93 67 61 96 126 97 212 1 98 -30 157 -151 287 -53 56 -105 122
-115 146 -11 24 -22 80 -26 125 l-7 82 -53 3 c-36 2 -53 -1 -56 -10z m-18
-347 c-19 -36 -52 -99 -74 -140 -36 -67 -39 -80 -39 -150 1 -66 5 -84 33 -136
18 -33 39 -70 48 -83 17 -22 16 -22 -10 -13 -83 32 -154 101 -174 169 -32 106
-4 173 138 326 55 60 101 114 101 120 1 6 3 3 6 -8 3 -10 -10 -48 -29 -85z
m213 -161 c47 -89 47 -158 2 -250 -30 -62 -107 -153 -88 -105 4 11 16 43 27
70 32 80 26 178 -16 300 -18 55 -37 127 -41 160 l-6 60 44 -85 c24 -47 59
-114 78 -150z m90 44 c89 -111 91 -223 6 -320 -33 -38 -100 -84 -122 -84 -3 0
7 19 23 43 45 66 62 120 62 196 0 73 -6 87 -103 261 -20 36 -37 71 -37 78 0
12 116 -105 171 -174z m-250 75 c-7 -31 -24 -86 -38 -121 -23 -53 -27 -78 -27
-158 -1 -84 2 -102 27 -154 15 -32 25 -61 23 -63 -8 -8 -76 84 -100 137 -40
86 -36 156 14 250 22 41 55 104 72 141 37 74 47 63 29 -32z m57 -109 c53 -135
52 -231 -6 -345 l-25 -50 -30 64 c-47 100 -49 185 -6 311 18 55 34 98 35 97 1
-1 16 -36 32 -77z"/>
</g>
</svg>
